<svg width="202" height="60" viewBox="0 0 202 60" fill="none" xmlns="http://www.w3.org/2000/svg">
<path d="M20.475 33.575C20.475 32.5417 20.325 31.6 20.025 30.75C19.7417 29.8833 19.3167 29.1417 18.75 28.525C18.2 27.8917 17.525 27.4083 16.725 27.075C15.925 26.725 15.0167 26.55 14 26.55C11.8667 26.55 10.175 27.175 8.925 28.425C7.69167 29.6583 6.925 31.375 6.625 33.575H20.475ZM24.075 45.45C23.525 46.1167 22.8667 46.7 22.1 47.2C21.3333 47.6833 20.5083 48.0833 19.625 48.4C18.7583 48.7167 17.8583 48.95 16.925 49.1C15.9917 49.2667 15.0667 49.35 14.15 49.35C12.4 49.35 10.7833 49.0583 9.3 48.475C7.83333 47.875 6.55833 47.0083 5.475 45.875C4.40833 44.725 3.575 43.3083 2.975 41.625C2.375 39.9417 2.075 38.0083 2.075 35.825C2.075 34.0583 2.34167 32.4083 2.875 30.875C3.425 29.3417 4.20833 28.0167 5.225 26.9C6.24167 25.7667 7.48333 24.8833 8.95 24.25C10.4167 23.6 12.0667 23.275 13.9 23.275C15.4167 23.275 16.8167 23.5333 18.1 24.05C19.4 24.55 20.5167 25.2833 21.45 26.25C22.4 27.2 23.1417 28.3833 23.675 29.8C24.2083 31.2 24.475 32.8 24.475 34.6C24.475 35.3 24.4 35.7667 24.25 36C24.1 36.2333 23.8167 36.35 23.4 36.35H6.475C6.525 37.95 6.74167 39.3417 7.125 40.525C7.525 41.7083 8.075 42.7 8.775 43.5C9.475 44.2833 10.3083 44.875 11.275 45.275C12.2417 45.6583 13.325 45.85 14.525 45.85C15.6417 45.85 16.6 45.725 17.4 45.475C18.2167 45.2083 18.9167 44.925 19.5 44.625C20.0833 44.325 20.5667 44.05 20.95 43.8C21.35 43.5333 21.6917 43.4 21.975 43.4C22.3417 43.4 22.625 43.5417 22.825 43.825L24.075 45.45ZM43.666 37.6C41.616 37.6667 39.866 37.8333 38.416 38.1C36.9827 38.35 35.8077 38.6833 34.891 39.1C33.991 39.5167 33.3327 40.0083 32.916 40.575C32.516 41.1417 32.316 41.775 32.316 42.475C32.316 43.1417 32.4243 43.7167 32.641 44.2C32.8577 44.6833 33.1493 45.0833 33.516 45.4C33.8993 45.7 34.341 45.925 34.841 46.075C35.3577 46.2083 35.9077 46.275 36.491 46.275C37.2743 46.275 37.991 46.2 38.641 46.05C39.291 45.8833 39.8993 45.65 40.466 45.35C41.0493 45.05 41.5993 44.6917 42.116 44.275C42.6493 43.8583 43.166 43.3833 43.666 42.85V37.6ZM29.291 27.25C30.691 25.9 32.1993 24.8917 33.816 24.225C35.4327 23.5583 37.2243 23.225 39.191 23.225C40.6077 23.225 41.866 23.4583 42.966 23.925C44.066 24.3917 44.991 25.0417 45.741 25.875C46.491 26.7083 47.0577 27.7167 47.441 28.9C47.8243 30.0833 48.016 31.3833 48.016 32.8V49H46.041C45.6077 49 45.2744 48.9333 45.041 48.8C44.8077 48.65 44.6243 48.3667 44.491 47.95L43.991 45.55C43.3243 46.1667 42.6743 46.7167 42.041 47.2C41.4077 47.6667 40.741 48.0667 40.041 48.4C39.341 48.7167 38.591 48.9583 37.791 49.125C37.0077 49.3083 36.1327 49.4 35.166 49.4C34.1827 49.4 33.2577 49.2667 32.391 49C31.5243 48.7167 30.766 48.3 30.116 47.75C29.4827 47.2 28.9743 46.5083 28.591 45.675C28.2243 44.825 28.041 43.825 28.041 42.675C28.041 41.675 28.316 40.7167 28.866 39.8C29.416 38.8667 30.3077 38.0417 31.541 37.325C32.7743 36.6083 34.3827 36.025 36.366 35.575C38.3493 35.1083 40.7827 34.8417 43.666 34.775V32.8C43.666 30.8333 43.241 29.35 42.391 28.35C41.541 27.3333 40.2993 26.825 38.666 26.825C37.566 26.825 36.641 26.9667 35.891 27.25C35.1577 27.5167 34.516 27.825 33.966 28.175C33.4327 28.5083 32.966 28.8167 32.566 29.1C32.1827 29.3667 31.7993 29.5 31.416 29.5C31.116 29.5 30.8577 29.425 30.641 29.275C30.4243 29.1083 30.241 28.9083 30.091 28.675L29.291 27.25ZM69.5445 27.85C69.3445 28.2167 69.0362 28.4 68.6195 28.4C68.3695 28.4 68.0862 28.3083 67.7695 28.125C67.4529 27.9417 67.0612 27.7417 66.5945 27.525C66.1445 27.2917 65.6029 27.0833 64.9695 26.9C64.3362 26.7 63.5862 26.6 62.7195 26.6C61.9695 26.6 61.2945 26.7 60.6945 26.9C60.0945 27.0833 59.5779 27.3417 59.1445 27.675C58.7279 28.0083 58.4029 28.4 58.1695 28.85C57.9529 29.2833 57.8445 29.7583 57.8445 30.275C57.8445 30.925 58.0279 31.4667 58.3945 31.9C58.7779 32.3333 59.2779 32.7083 59.8945 33.025C60.5112 33.3417 61.2112 33.625 61.9945 33.875C62.7779 34.1083 63.5779 34.3667 64.3945 34.65C65.2279 34.9167 66.0362 35.2167 66.8195 35.55C67.6029 35.8833 68.3029 36.3 68.9195 36.8C69.5362 37.3 70.0279 37.9167 70.3945 38.65C70.7779 39.3667 70.9695 40.2333 70.9695 41.25C70.9695 42.4167 70.7612 43.5 70.3445 44.5C69.9279 45.4833 69.3112 46.3417 68.4945 47.075C67.6779 47.7917 66.6779 48.3583 65.4945 48.775C64.3112 49.1917 62.9445 49.4 61.3945 49.4C59.6279 49.4 58.0279 49.1167 56.5945 48.55C55.1612 47.9667 53.9445 47.225 52.9445 46.325L53.9945 44.625C54.1279 44.4083 54.2862 44.2417 54.4695 44.125C54.6529 44.0083 54.8862 43.95 55.1695 43.95C55.4695 43.95 55.7862 44.0667 56.1195 44.3C56.4529 44.5333 56.8529 44.7917 57.3195 45.075C57.8029 45.3583 58.3862 45.6167 59.0695 45.85C59.7529 46.0833 60.6029 46.2 61.6195 46.2C62.4862 46.2 63.2445 46.0917 63.8945 45.875C64.5445 45.6417 65.0862 45.3333 65.5195 44.95C65.9529 44.5667 66.2695 44.125 66.4695 43.625C66.6862 43.125 66.7945 42.5917 66.7945 42.025C66.7945 41.325 66.6029 40.75 66.2195 40.3C65.8529 39.8333 65.3612 39.4417 64.7445 39.125C64.1279 38.7917 63.4195 38.5083 62.6195 38.275C61.8362 38.025 61.0279 37.7667 60.1945 37.5C59.3779 37.2333 58.5695 36.9333 57.7695 36.6C56.9862 36.25 56.2862 35.8167 55.6695 35.3C55.0529 34.7833 54.5529 34.15 54.1695 33.4C53.8029 32.6333 53.6195 31.7083 53.6195 30.625C53.6195 29.6583 53.8195 28.7333 54.2195 27.85C54.6195 26.95 55.2029 26.1667 55.9695 25.5C56.7362 24.8167 57.6779 24.275 58.7945 23.875C59.9112 23.475 61.1862 23.275 62.6195 23.275C64.2862 23.275 65.7779 23.5417 67.0945 24.075C68.4279 24.5917 69.5779 25.3083 70.5445 26.225L69.5445 27.85ZM97.8359 23.675L83.7109 56.475C83.5609 56.8083 83.3693 57.075 83.1359 57.275C82.9193 57.475 82.5776 57.575 82.1109 57.575H78.8109L83.4359 47.525L72.9859 23.675H76.8359C77.2193 23.675 77.5193 23.775 77.7359 23.975C77.9693 24.1583 78.1276 24.3667 78.2109 24.6L84.9859 40.55C85.2526 41.25 85.4776 41.9833 85.6609 42.75C85.8943 41.9667 86.1443 41.225 86.4109 40.525L92.9859 24.6C93.0859 24.3333 93.2526 24.1167 93.4859 23.95C93.7359 23.7667 94.0109 23.675 94.3109 23.675H97.8359Z" fill="#2F2E2F"/>
<path d="M119.26 23.675V50.875C119.26 51.8917 119.127 52.8333 118.86 53.7C118.593 54.5833 118.168 55.35 117.585 56C117.002 56.65 116.252 57.1583 115.335 57.525C114.435 57.9083 113.352 58.1 112.085 58.1C111.552 58.1 111.06 58.0583 110.61 57.975C110.16 57.8917 109.71 57.7667 109.26 57.6L109.435 55.2C109.468 55.05 109.527 54.9333 109.61 54.85C109.677 54.7833 109.777 54.7417 109.91 54.725C110.043 54.7083 110.218 54.7 110.435 54.7C110.635 54.7167 110.893 54.725 111.21 54.725C112.51 54.725 113.435 54.4167 113.985 53.8C114.535 53.2 114.81 52.225 114.81 50.875V23.675H119.26ZM120.185 15.725C120.185 16.1583 120.093 16.5667 119.91 16.95C119.743 17.3167 119.51 17.65 119.21 17.95C118.927 18.2333 118.593 18.4583 118.21 18.625C117.827 18.7917 117.418 18.875 116.985 18.875C116.552 18.875 116.143 18.7917 115.76 18.625C115.393 18.4583 115.068 18.2333 114.785 17.95C114.502 17.65 114.277 17.3167 114.11 16.95C113.943 16.5667 113.86 16.1583 113.86 15.725C113.86 15.2917 113.943 14.8833 114.11 14.5C114.277 14.1 114.502 13.7583 114.785 13.475C115.068 13.175 115.393 12.9417 115.76 12.775C116.143 12.6083 116.552 12.525 116.985 12.525C117.418 12.525 117.827 12.6083 118.21 12.775C118.593 12.9417 118.927 13.175 119.21 13.475C119.51 13.7583 119.743 14.1 119.91 14.5C120.093 14.8833 120.185 15.2917 120.185 15.725ZM137.247 23.275C139.097 23.275 140.764 23.5833 142.247 24.2C143.73 24.8167 144.997 25.6917 146.047 26.825C147.097 27.9583 147.897 29.3333 148.447 30.95C149.014 32.55 149.297 34.3417 149.297 36.325C149.297 38.325 149.014 40.125 148.447 41.725C147.897 43.325 147.097 44.6917 146.047 45.825C144.997 46.9583 143.73 47.8333 142.247 48.45C140.764 49.05 139.097 49.35 137.247 49.35C135.38 49.35 133.697 49.05 132.197 48.45C130.714 47.8333 129.447 46.9583 128.397 45.825C127.347 44.6917 126.539 43.325 125.972 41.725C125.422 40.125 125.147 38.325 125.147 36.325C125.147 34.3417 125.422 32.55 125.972 30.95C126.539 29.3333 127.347 27.9583 128.397 26.825C129.447 25.6917 130.714 24.8167 132.197 24.2C133.697 23.5833 135.38 23.275 137.247 23.275ZM137.247 45.875C139.747 45.875 141.614 45.0417 142.847 43.375C144.08 41.6917 144.697 39.35 144.697 36.35C144.697 33.3333 144.08 30.9833 142.847 29.3C141.614 27.6167 139.747 26.775 137.247 26.775C135.98 26.775 134.872 26.9917 133.922 27.425C132.989 27.8583 132.205 28.4833 131.572 29.3C130.955 30.1167 130.489 31.125 130.172 32.325C129.872 33.5083 129.722 34.85 129.722 36.35C129.722 39.35 130.339 41.6917 131.572 43.375C132.822 45.0417 134.714 45.875 137.247 45.875ZM159.416 42.9C160.233 44 161.124 44.775 162.091 45.225C163.074 45.675 164.149 45.9 165.316 45.9C167.699 45.9 169.524 45.0583 170.791 43.375C172.058 41.6917 172.691 39.1833 172.691 35.85C172.691 32.75 172.124 30.475 170.991 29.025C169.874 27.5583 168.274 26.825 166.191 26.825C164.741 26.825 163.474 27.1583 162.391 27.825C161.324 28.4917 160.333 29.4333 159.416 30.65V42.9ZM159.416 27.325C160.483 26.0917 161.683 25.1083 163.016 24.375C164.366 23.6417 165.916 23.275 167.666 23.275C169.149 23.275 170.483 23.5583 171.666 24.125C172.866 24.6917 173.883 25.5167 174.716 26.6C175.549 27.6667 176.183 28.9667 176.616 30.5C177.066 32.0333 177.291 33.7583 177.291 35.675C177.291 37.725 177.041 39.5917 176.541 41.275C176.041 42.9583 175.316 44.4 174.366 45.6C173.433 46.7833 172.291 47.7083 170.941 48.375C169.591 49.025 168.074 49.35 166.391 49.35C164.724 49.35 163.316 49.0417 162.166 48.425C161.033 47.7917 160.041 46.9 159.191 45.75L158.966 48.05C158.833 48.6833 158.449 49 157.816 49H154.941V12.175H159.416V27.325ZM197.67 27.85C197.47 28.2167 197.161 28.4 196.745 28.4C196.495 28.4 196.211 28.3083 195.895 28.125C195.578 27.9417 195.186 27.7417 194.72 27.525C194.27 27.2917 193.728 27.0833 193.095 26.9C192.461 26.7 191.711 26.6 190.845 26.6C190.095 26.6 189.42 26.7 188.82 26.9C188.22 27.0833 187.703 27.3417 187.27 27.675C186.853 28.0083 186.528 28.4 186.295 28.85C186.078 29.2833 185.97 29.7583 185.97 30.275C185.97 30.925 186.153 31.4667 186.52 31.9C186.903 32.3333 187.403 32.7083 188.02 33.025C188.636 33.3417 189.336 33.625 190.12 33.875C190.903 34.1083 191.703 34.3667 192.52 34.65C193.353 34.9167 194.161 35.2167 194.945 35.55C195.728 35.8833 196.428 36.3 197.045 36.8C197.661 37.3 198.153 37.9167 198.52 38.65C198.903 39.3667 199.095 40.2333 199.095 41.25C199.095 42.4167 198.886 43.5 198.47 44.5C198.053 45.4833 197.436 46.3417 196.62 47.075C195.803 47.7917 194.803 48.3583 193.62 48.775C192.436 49.1917 191.07 49.4 189.52 49.4C187.753 49.4 186.153 49.1167 184.72 48.55C183.286 47.9667 182.07 47.225 181.07 46.325L182.12 44.625C182.253 44.4083 182.411 44.2417 182.595 44.125C182.778 44.0083 183.011 43.95 183.295 43.95C183.595 43.95 183.911 44.0667 184.245 44.3C184.578 44.5333 184.978 44.7917 185.445 45.075C185.928 45.3583 186.511 45.6167 187.195 45.85C187.878 46.0833 188.728 46.2 189.745 46.2C190.611 46.2 191.37 46.0917 192.02 45.875C192.67 45.6417 193.211 45.3333 193.645 44.95C194.078 44.5667 194.395 44.125 194.595 43.625C194.811 43.125 194.92 42.5917 194.92 42.025C194.92 41.325 194.728 40.75 194.345 40.3C193.978 39.8333 193.486 39.4417 192.87 39.125C192.253 38.7917 191.545 38.5083 190.745 38.275C189.961 38.025 189.153 37.7667 188.32 37.5C187.503 37.2333 186.695 36.9333 185.895 36.6C185.111 36.25 184.411 35.8167 183.795 35.3C183.178 34.7833 182.678 34.15 182.295 33.4C181.928 32.6333 181.745 31.7083 181.745 30.625C181.745 29.6583 181.945 28.7333 182.345 27.85C182.745 26.95 183.328 26.1667 184.095 25.5C184.861 24.8167 185.803 24.275 186.92 23.875C188.036 23.475 189.311 23.275 190.745 23.275C192.411 23.275 193.903 23.5417 195.22 24.075C196.553 24.5917 197.703 25.3083 198.67 26.225L197.67 27.85Z" fill="#0000FF"/>
</svg>
