<svg width="668" height="641" viewBox="0 0 668 641" fill="none" xmlns="http://www.w3.org/2000/svg">
<g clip-path="url(#clip0_4_36)">
<path d="M574.956 147H492.956C486.063 147 480.456 141.393 480.456 134.5V52.5C480.456 45.6074 486.063 40 492.956 40H574.956C581.849 40 587.456 45.6074 587.456 52.5V134.5C587.456 141.393 581.849 147 574.956 147ZM492.956 42C487.157 42 482.456 46.701 482.456 52.5V134.5C482.456 140.299 487.157 145 492.956 145H550.395C569.759 145 585.456 129.303 585.456 109.939V52.5C585.456 46.701 580.755 42 574.956 42H492.956Z" fill="#FAFAFA"/>
<path d="M574.956 147H492.956C486.063 147 480.456 141.393 480.456 134.5V52.5C480.456 45.6074 486.063 40 492.956 40H574.956C581.849 40 587.456 45.6074 587.456 52.5V134.5C587.456 141.393 581.849 147 574.956 147Z" fill="#5252E0"/>
<path d="M533.456 22C539.531 22 544.456 17.0751 544.456 11C544.456 4.92487 539.531 0 533.456 0C527.381 0 522.456 4.92487 522.456 11C522.456 17.0751 527.381 22 533.456 22Z" fill="#FAFAFA"/>
<path d="M467.484 308.714H385.484C378.591 308.714 372.984 303.106 372.984 296.214V214.214C372.984 207.321 378.591 201.714 385.484 201.714H467.484C474.376 201.714 479.984 207.321 479.984 214.214V296.214C479.984 303.106 474.376 308.714 467.484 308.714ZM385.484 203.714C379.685 203.714 374.984 208.415 374.984 214.214V296.214C374.984 302.013 379.685 306.714 385.484 306.714C436.57 306.714 477.984 265.3 477.984 214.214C477.984 208.415 473.283 203.714 467.484 203.714H385.484Z" fill="#2E2D2E"/>
<path d="M425.984 183.714C432.059 183.714 436.984 178.789 436.984 172.714C436.984 166.639 432.059 161.714 425.984 161.714C419.909 161.714 414.984 166.639 414.984 172.714C414.984 178.789 419.909 183.714 425.984 183.714Z" fill="#2E2D2E"/>
<path d="M429.337 249.691C425.65 250.671 421.36 248.172 420.582 244.375C419.773 240.43 423.266 236.143 427.283 236.114C431.36 236.084 434.885 240.192 434.222 244.203C433.802 246.748 432.23 248.966 430.804 251.047C429.215 253.366 427.553 255.635 425.841 257.864C421.966 262.906 417.832 267.743 413.708 272.581C412.83 273.611 413.445 275.021 414.769 275.142L438.233 277.289C440.155 277.464 440.143 274.463 438.233 274.289L414.769 272.142L415.829 274.702C420.373 269.372 424.911 264.032 429.142 258.447C431.165 255.775 433.208 253.063 434.949 250.195C436.48 247.671 437.641 244.791 437.199 241.791C436.437 236.62 431.296 232.466 426.052 233.22C420.844 233.969 416.826 239.297 417.577 244.507C418.401 250.225 424.649 254.041 430.134 252.584C431.998 252.088 431.208 249.194 429.337 249.691V249.691Z" fill="#2E2D2E"/>
<path d="M654.956 409H572.956C566.063 409 560.456 403.393 560.456 396.5V314.5C560.456 307.607 566.063 302 572.956 302H654.956C661.849 302 667.456 307.607 667.456 314.5V396.5C667.456 403.393 661.849 409 654.956 409ZM572.956 304C567.157 304 562.456 308.701 562.456 314.5V396.5C562.456 402.299 567.157 407 572.956 407H572.956C624.042 407 665.456 365.586 665.456 314.5V314.5C665.456 308.701 660.755 304 654.956 304H572.956Z" fill="#FAFAFA"/>
<path d="M613.456 284C619.531 284 624.456 279.075 624.456 273C624.456 266.925 619.531 262 613.456 262C607.381 262 602.456 266.925 602.456 273C602.456 279.075 607.381 284 613.456 284Z" fill="#FAFAFA"/>
<path d="M604.847 337.963C609.979 335.353 616.807 337.262 618.682 343.02C619.486 345.489 619.221 348.222 617.601 350.31C615.94 352.45 613.354 353.604 610.665 353.335V356.335C614.021 356.552 617.388 357.763 619.748 360.231C621.894 362.475 622.976 365.881 622.107 368.916C621.265 371.858 618.448 374.045 615.395 374.203C612.353 374.361 609.339 372.412 608.198 369.588C607.484 367.82 604.581 368.592 605.305 370.385C607.859 376.709 615.649 379.295 621.245 375.091C626.956 370.803 626.375 362.362 621.451 357.691C618.534 354.924 614.622 353.591 610.665 353.335C608.719 353.209 608.774 356.145 610.665 356.335C614.238 356.692 617.763 354.958 619.937 352.154C622.122 349.336 622.671 345.603 621.575 342.223C619.089 334.555 610.226 331.867 603.332 335.372C601.611 336.247 603.128 338.837 604.847 337.963V337.963Z" fill="#FAFAFA"/>
<path d="M157.956 416H75.956C69.0634 416 63.456 410.393 63.456 403.5V321.5C63.456 314.607 69.0634 309 75.956 309H157.956C164.849 309 170.456 314.607 170.456 321.5V403.5C170.456 410.393 164.849 416 157.956 416V416Z" fill="#3F3D56"/>
<path d="M127.008 322.554C132.012 319.939 133.949 313.763 131.334 308.759C131.071 308.255 130.763 307.792 130.433 307.352L144.024 216L123.932 216.129L115.547 305.807C112.073 308.843 110.982 313.958 113.213 318.228C115.828 323.232 122.004 325.168 127.008 322.554H127.008Z" fill="#FFB6B6"/>
<path d="M130.298 152.238C130.298 152.238 124.293 150.605 123.42 163.761C122.721 174.295 112.226 238.47 115.16 252.829C111.411 254.557 109.15 258.649 109.928 262.897L140.268 260.17C144.43 254.664 144.451 248.497 142.066 247.209L144.503 228.299L158.585 166.699L134.66 153.342L130.298 152.238V152.238Z" fill="#E0E0E1"/>
<path d="M150.197 556.698L161.727 556.697L167.212 512.226L150.195 512.227L150.197 556.698Z" fill="#FFB6B6"/>
<path d="M165.563 557.736V549.919L162.532 550.105L150.194 550.836L147.338 551.011L145.155 577.189L145.038 578.592H153.225L153.488 577.198L154.677 570.863L157.747 577.198L158.419 578.592H180.124C181.42 578.592 182.599 578.085 183.466 577.247C184.412 576.36 184.997 575.103 184.997 573.709C185.913 569.431 167.863 560.182 165.563 557.736H165.563Z" fill="#1A191A"/>
<path d="M99.5739 543.455L112.456 546L124.456 505L111.525 500.62L99.5739 543.455Z" fill="#FFB6B6"/>
<path d="M114.096 548.585L116.196 541.056L113.227 540.42L101.146 537.808L98.3488 537.209L89.21 561.837L88.7201 563.157L96.6054 565.358L97.2335 564.086L100.081 558.304L101.336 565.231L101.609 566.754L122.514 572.587C123.763 572.936 125.035 572.765 126.096 572.19C127.245 571.59 128.146 570.537 128.52 569.194C130.553 565.319 115.653 551.56 114.096 548.585V548.585Z" fill="#1A191A"/>
<path d="M207.3 306.071L207.597 302.952L194.773 267.794L140.123 278.332C140.123 278.332 111.956 313.03 118.22 335.996C119.918 342.224 123.549 415.639 122.456 418C97.282 472.372 104.315 510.725 104.315 510.725C104.315 510.725 112.271 517.664 125.9 521.103C129.456 522 156.497 400.023 156.497 400.023C156.497 400.023 155.305 407.635 153.644 419.208C148.513 454.963 140.452 526.942 147.614 530.669C157.094 535.602 166.163 534.687 166.163 534.687C166.163 534.687 195.719 445.878 189.456 425" fill="#1A191A"/>
<path d="M180.456 155L163.577 136.847L150.746 136.101L133.456 154L127.045 172.081V172.081C119.869 189.513 118.227 208.731 122.343 227.127L132.191 271.14C132.191 271.14 133.708 276.326 129.733 276.949C125.759 277.572 126.235 285.217 126.235 285.217C126.235 285.217 127.045 291.843 123.185 292.427C119.326 293.01 109.034 293.01 118.04 304.588C127.045 316.167 198.272 272.376 198.272 272.376L198.617 218.094C198.617 218.094 218.68 191.147 197.074 175.714L180.456 155V155Z" fill="#E0E0E1"/>
<path d="M222.956 346H140.956C134.063 346 128.456 340.393 128.456 333.5V251.5C128.456 244.607 134.063 239 140.956 239H222.956C229.849 239 235.456 244.607 235.456 251.5V333.5C235.456 340.393 229.849 346 222.956 346Z" fill="#5252E0"/>
<path d="M210.502 305.673C214.28 301.477 213.941 295.013 209.745 291.235C209.323 290.855 208.873 290.528 208.41 290.231L189.287 199.875L170.501 207.003L193.92 293.975C191.723 298.031 192.485 303.206 196.065 306.429C200.26 310.207 206.724 309.868 210.502 305.673H210.502Z" fill="#FFB6B6"/>
<path d="M172.574 154.525C172.574 154.525 178.244 151.959 181.194 164.81C183.557 175.099 204.108 236.794 203.49 251.437C207.466 252.548 210.348 256.229 210.254 260.546L179.867 262.671C174.883 257.896 173.883 251.81 176.033 250.159L170.625 231.876L146.941 173.293L168.443 156.308L172.574 154.525V154.525Z" fill="#E0E0E1"/>
<path d="M203.24 562.976C205.306 563.105 206.448 560.539 204.885 559.043L204.73 558.424C204.75 558.375 204.771 558.326 204.791 558.276C206.881 553.294 213.961 553.329 216.033 558.318C217.871 562.746 220.212 567.182 220.789 571.864C221.047 573.931 220.931 576.036 220.472 578.064C224.78 568.654 227.047 558.378 227.047 548.044C227.047 545.447 226.905 542.85 226.615 540.261C226.376 538.142 226.046 536.036 225.62 533.95C223.314 522.673 218.321 511.932 211.12 502.961C207.658 501.068 204.771 498.11 203.027 494.564C202.4 493.285 201.909 491.909 201.677 490.508C202.071 490.56 203.162 484.559 202.865 484.191C203.414 483.358 204.397 482.944 204.997 482.131C207.979 478.087 212.088 478.793 214.233 484.288C218.815 486.601 218.859 490.436 216.048 494.125C214.259 496.472 214.013 499.647 212.444 502.16C212.605 502.366 212.773 502.567 212.935 502.773C215.896 506.571 218.457 510.653 220.616 514.942C220.006 510.176 220.906 504.434 222.442 500.732C224.19 496.515 227.467 492.963 230.353 489.317C233.819 484.938 240.926 486.849 241.537 492.401C241.542 492.454 241.548 492.508 241.554 492.562C241.125 492.804 240.705 493.06 240.295 493.332C237.956 494.879 238.764 498.506 241.536 498.933L241.599 498.943C241.444 500.487 241.179 502.018 240.792 503.523C244.494 517.838 236.502 523.052 225.09 523.287C224.838 523.416 224.593 523.545 224.341 523.668C225.497 526.923 226.421 530.262 227.105 533.647C227.719 536.637 228.145 539.66 228.384 542.695C228.681 546.526 228.656 550.375 228.333 554.199L228.352 554.063C229.172 549.852 231.459 545.918 234.779 543.193C239.724 539.13 246.711 537.634 252.047 534.369C254.615 532.797 257.906 534.828 257.458 537.806L257.436 537.948C256.642 538.271 255.867 538.646 255.117 539.066C254.689 539.307 254.269 539.564 253.859 539.835C251.519 541.383 252.328 545.009 255.1 545.437L255.163 545.447C255.208 545.453 255.247 545.46 255.292 545.466C253.929 548.702 252.03 551.706 249.653 554.296C247.339 566.793 237.397 567.978 226.763 564.339H226.757C225.594 569.403 223.895 574.35 221.712 579.065H203.692C203.627 578.865 203.569 578.658 203.511 578.458C205.178 578.562 206.857 578.465 208.497 578.161C207.16 576.521 205.823 574.867 204.486 573.227C204.454 573.194 204.428 573.162 204.402 573.13C203.724 572.29 203.04 571.457 202.361 570.617L202.361 570.616C202.319 568.039 202.628 565.47 203.24 562.976L203.24 562.976V562.976Z" fill="#FAFAFA"/>
<path d="M61.5914 564.976C59.5255 565.105 58.3837 562.539 59.9467 561.043L60.1022 560.424C60.0817 560.375 60.0612 560.326 60.0404 560.276C57.9512 555.294 50.8705 555.329 48.799 560.318C46.9605 564.746 44.6196 569.182 44.0433 573.864C43.7849 575.931 43.9011 578.036 44.3597 580.064C40.0517 570.654 37.7846 560.378 37.7846 550.044C37.7846 547.447 37.9267 544.85 38.2173 542.261C38.4563 540.142 38.7857 538.036 39.212 535.95C41.5178 524.673 46.5106 513.932 53.7122 504.961C57.1741 503.068 60.0612 500.11 61.8051 496.564C62.4316 495.285 62.9225 493.909 63.155 492.508C62.761 492.56 61.6695 486.559 61.9666 486.191C61.4176 485.358 60.4348 484.944 59.8352 484.131C56.8529 480.087 52.744 480.793 50.599 486.288C46.0167 488.601 45.9724 492.436 48.784 496.125C50.5728 498.472 50.8186 501.647 52.3881 504.16C52.2266 504.366 52.0587 504.567 51.8972 504.773C48.9361 508.571 46.3751 512.653 44.2162 516.942C44.8263 512.176 43.9255 506.434 42.3897 502.732C40.6416 498.515 37.3648 494.963 34.4793 491.317C31.0133 486.938 23.9059 488.849 23.2953 494.401C23.2894 494.454 23.2836 494.508 23.278 494.562C23.7066 494.804 24.1265 495.06 24.5366 495.332C26.8761 496.879 26.0676 500.506 23.2955 500.933L23.2328 500.943C23.3878 502.487 23.6526 504.018 24.0401 505.523C20.3383 519.838 28.3302 525.052 39.7416 525.287C39.9935 525.416 40.239 525.545 40.4909 525.668C39.3347 528.923 38.4111 532.262 37.7265 535.647C37.1129 538.637 36.6866 541.66 36.4476 544.695C36.1505 548.526 36.1763 552.375 36.4993 556.199L36.4799 556.063C35.6597 551.852 33.3732 547.918 30.0533 545.193C25.1077 541.13 18.1205 539.634 12.785 536.369C10.2167 534.797 6.92559 536.828 7.37383 539.806L7.39565 539.948C8.19008 540.271 8.96512 540.646 9.71436 541.066C10.143 541.307 10.5628 541.564 10.973 541.835C13.3125 543.383 12.504 547.009 9.73193 547.437L9.66911 547.447C9.62391 547.453 9.58514 547.46 9.54 547.466C10.9028 550.702 12.8017 553.706 15.1785 556.296C17.4932 568.793 27.4346 569.978 38.0688 566.339H38.0752C39.2378 571.403 40.9365 576.35 43.1196 581.065H61.1398C61.2045 580.865 61.2626 580.658 61.3207 580.458C59.6543 580.562 57.975 580.465 56.3344 580.161C57.6714 578.521 59.0084 576.867 60.3454 575.227C60.3777 575.194 60.4036 575.162 60.4294 575.13C61.1075 574.29 61.7922 573.457 62.4704 572.617L62.4707 572.616C62.5132 570.039 62.2042 567.47 61.592 564.976L61.5914 564.976V564.976Z" fill="#FAFAFA"/>
<path d="M0 579.473C0 580.133 0.53003 580.663 1.19006 580.663H254.48C255.14 580.663 255.67 580.133 255.67 579.473C255.67 578.813 255.14 578.283 254.48 578.283H1.19006C0.53003 578.283 0 578.813 0 579.473Z" fill="#C6C6C7"/>
<path d="M163.487 124.234C176.983 124.234 187.923 113.293 187.923 99.7976C187.923 86.3018 176.983 75.3614 163.487 75.3614C149.992 75.3614 139.051 86.3018 139.051 99.7976C139.051 113.293 149.992 124.234 163.487 124.234Z" fill="#FFB6B6"/>
<path d="M186.344 98.8438C186.414 98.8438 186.584 98.8438 186.904 98.8538C187.834 98.9138 186.574 98.8638 186.344 98.8438Z" fill="#1A191A"/>
<path d="M199.354 96.5138C199.174 96.9538 198.584 97.3138 197.754 97.6038C196.174 95.5938 194.124 93.9638 191.784 92.9538C192.834 94.6638 193.694 96.4838 194.334 98.3838C192.064 98.7138 189.534 98.8538 187.904 98.8638C187.514 98.8638 187.174 98.8638 186.904 98.8538C186.504 98.1438 185.864 96.9938 185.314 95.8038C185.264 99.0538 180.734 108.634 181.104 116.734C181.554 126.424 182.064 136.994 182.064 136.994C180.434 137.404 178.464 137.694 176.214 137.874C173.734 133.324 171.894 128.234 170.904 123.074C170.794 122.524 170.704 121.974 170.614 121.424C170.404 122.054 170.204 122.694 170.034 123.344C169.284 126.044 168.844 128.954 168.704 131.974C168.604 133.964 168.644 135.984 168.794 138.034C156.454 140.544 141.194 140.284 130.154 134.154C130.524 133.144 130.804 132.104 130.984 131.044C131.584 127.564 126.744 127.074 123.524 129.204C120.304 125.974 117.864 121.874 116.544 116.744C137.584 107.514 115.434 96.1538 131.684 79.7838C129.724 65.5638 168.984 61.4538 176.584 74.0938C178.244 72.8338 183.414 72.8938 185.614 73.8138C187.814 74.7337 189.514 76.2838 191.174 77.7838C192.284 78.8038 191.764 80.8338 191.054 82.3538C194.544 80.6838 202.334 89.3638 199.354 96.5138V96.5138Z" fill="#2E2D2E"/>
</g>
<path d="M66.6 616.7L60.975 602.125C60.8083 601.692 60.6333 601.192 60.45 600.625C60.2667 600.042 60.0917 599.425 59.925 598.775C59.575 600.125 59.2167 601.25 58.85 602.15L53.225 616.7H66.6ZM76.7 630H72.95C72.5167 630 72.1667 629.892 71.9 629.675C71.6333 629.458 71.4333 629.183 71.3 628.85L67.95 620.2H51.875L48.525 628.85C48.425 629.15 48.2333 629.417 47.95 629.65C47.6667 629.883 47.3167 630 46.9 630H43.15L57.475 594.175H62.375L76.7 630ZM89.1879 617.625C90.0879 617.625 90.8796 617.5 91.5629 617.25C92.2462 617 92.8212 616.65 93.2879 616.2C93.7546 615.75 94.1046 615.217 94.3379 614.6C94.5712 613.967 94.6879 613.275 94.6879 612.525C94.6879 610.975 94.2129 609.742 93.2629 608.825C92.3296 607.908 90.9712 607.45 89.1879 607.45C87.3879 607.45 86.0129 607.908 85.0629 608.825C84.1296 609.742 83.6629 610.975 83.6629 612.525C83.6629 613.275 83.7796 613.967 84.0129 614.6C84.2629 615.217 84.6212 615.75 85.0879 616.2C85.5546 616.65 86.1296 617 86.8129 617.25C87.4962 617.5 88.2879 617.625 89.1879 617.625ZM97.2129 631.375C97.2129 630.758 97.0379 630.258 96.6879 629.875C96.3379 629.492 95.8629 629.192 95.2629 628.975C94.6796 628.758 93.9962 628.608 93.2129 628.525C92.4296 628.425 91.5962 628.35 90.7129 628.3C89.8462 628.25 88.9629 628.2 88.0629 628.15C87.1629 628.1 86.2962 628.017 85.4629 627.9C84.5296 628.333 83.7629 628.883 83.1629 629.55C82.5796 630.2 82.2879 630.967 82.2879 631.85C82.2879 632.417 82.4296 632.942 82.7129 633.425C83.0129 633.925 83.4629 634.35 84.0629 634.7C84.6629 635.067 85.4129 635.35 86.3129 635.55C87.2296 635.767 88.3046 635.875 89.5379 635.875C90.7379 635.875 91.8129 635.767 92.7629 635.55C93.7129 635.333 94.5129 635.025 95.1629 634.625C95.8296 634.225 96.3379 633.75 96.6879 633.2C97.0379 632.65 97.2129 632.042 97.2129 631.375ZM101.738 605.675V607.325C101.738 607.875 101.388 608.225 100.688 608.375L97.8129 608.75C98.3796 609.85 98.6629 611.067 98.6629 612.4C98.6629 613.633 98.4212 614.758 97.9379 615.775C97.4712 616.775 96.8212 617.633 95.9879 618.35C95.1546 619.067 94.1546 619.617 92.9879 620C91.8212 620.383 90.5546 620.575 89.1879 620.575C88.0046 620.575 86.8879 620.433 85.8379 620.15C85.3046 620.483 84.8962 620.842 84.6129 621.225C84.3296 621.592 84.1879 621.967 84.1879 622.35C84.1879 622.95 84.4296 623.408 84.9129 623.725C85.4129 624.025 86.0629 624.242 86.8629 624.375C87.6629 624.508 88.5712 624.592 89.5879 624.625C90.6212 624.658 91.6712 624.717 92.7379 624.8C93.8212 624.867 94.8712 624.992 95.8879 625.175C96.9212 625.358 97.8379 625.658 98.6379 626.075C99.4379 626.492 100.08 627.067 100.563 627.8C101.063 628.533 101.313 629.483 101.313 630.65C101.313 631.733 101.038 632.783 100.488 633.8C99.9546 634.817 99.1796 635.717 98.1629 636.5C97.1462 637.3 95.8962 637.933 94.4129 638.4C92.9462 638.883 91.2879 639.125 89.4379 639.125C87.5879 639.125 85.9712 638.942 84.5879 638.575C83.2046 638.208 82.0546 637.717 81.1379 637.1C80.2212 636.483 79.5296 635.767 79.0629 634.95C78.6129 634.15 78.3879 633.308 78.3879 632.425C78.3879 631.175 78.7796 630.117 79.5629 629.25C80.3462 628.383 81.4212 627.692 82.7879 627.175C82.0379 626.842 81.4379 626.4 80.9879 625.85C80.5546 625.283 80.3379 624.525 80.3379 623.575C80.3379 623.208 80.4046 622.833 80.5379 622.45C80.6712 622.05 80.8712 621.658 81.1379 621.275C81.4212 620.875 81.7629 620.5 82.1629 620.15C82.5629 619.8 83.0296 619.492 83.5629 619.225C82.3129 618.525 81.3379 617.6 80.6379 616.45C79.9379 615.283 79.5879 613.933 79.5879 612.4C79.5879 611.167 79.8212 610.05 80.2879 609.05C80.7712 608.033 81.4379 607.175 82.2879 606.475C83.1379 605.758 84.1462 605.208 85.3129 604.825C86.4962 604.442 87.7879 604.25 89.1879 604.25C90.2879 604.25 91.3129 604.375 92.2629 604.625C93.2129 604.858 94.0796 605.208 94.8629 605.675H101.738ZM127.164 604.675V630H124.514C123.881 630 123.481 629.692 123.314 629.075L122.964 626.35C121.864 627.567 120.631 628.55 119.264 629.3C117.898 630.033 116.331 630.4 114.564 630.4C113.181 630.4 111.956 630.175 110.889 629.725C109.839 629.258 108.956 628.608 108.239 627.775C107.523 626.942 106.981 625.933 106.614 624.75C106.264 623.567 106.089 622.258 106.089 620.825V604.675H110.539V620.825C110.539 622.742 110.973 624.225 111.839 625.275C112.723 626.325 114.064 626.85 115.864 626.85C117.181 626.85 118.406 626.542 119.539 625.925C120.689 625.292 121.748 624.425 122.714 623.325V604.675H127.164ZM147.945 618.6C145.895 618.667 144.145 618.833 142.695 619.1C141.262 619.35 140.087 619.683 139.17 620.1C138.27 620.517 137.612 621.008 137.195 621.575C136.795 622.142 136.595 622.775 136.595 623.475C136.595 624.142 136.704 624.717 136.92 625.2C137.137 625.683 137.429 626.083 137.795 626.4C138.179 626.7 138.62 626.925 139.12 627.075C139.637 627.208 140.187 627.275 140.77 627.275C141.554 627.275 142.27 627.2 142.92 627.05C143.57 626.883 144.179 626.65 144.745 626.35C145.329 626.05 145.879 625.692 146.395 625.275C146.929 624.858 147.445 624.383 147.945 623.85V618.6ZM133.57 608.25C134.97 606.9 136.479 605.892 138.095 605.225C139.712 604.558 141.504 604.225 143.47 604.225C144.887 604.225 146.145 604.458 147.245 604.925C148.345 605.392 149.27 606.042 150.02 606.875C150.77 607.708 151.337 608.717 151.72 609.9C152.104 611.083 152.295 612.383 152.295 613.8V630H150.32C149.887 630 149.554 629.933 149.32 629.8C149.087 629.65 148.904 629.367 148.77 628.95L148.27 626.55C147.604 627.167 146.954 627.717 146.32 628.2C145.687 628.667 145.02 629.067 144.32 629.4C143.62 629.717 142.87 629.958 142.07 630.125C141.287 630.308 140.412 630.4 139.445 630.4C138.462 630.4 137.537 630.267 136.67 630C135.804 629.717 135.045 629.3 134.395 628.75C133.762 628.2 133.254 627.508 132.87 626.675C132.504 625.825 132.32 624.825 132.32 623.675C132.32 622.675 132.595 621.717 133.145 620.8C133.695 619.867 134.587 619.042 135.82 618.325C137.054 617.608 138.662 617.025 140.645 616.575C142.629 616.108 145.062 615.842 147.945 615.775V613.8C147.945 611.833 147.52 610.35 146.67 609.35C145.82 608.333 144.579 607.825 142.945 607.825C141.845 607.825 140.92 607.967 140.17 608.25C139.437 608.517 138.795 608.825 138.245 609.175C137.712 609.508 137.245 609.817 136.845 610.1C136.462 610.367 136.079 610.5 135.695 610.5C135.395 610.5 135.137 610.425 134.92 610.275C134.704 610.108 134.52 609.908 134.37 609.675L133.57 608.25ZM163.299 609.75C164.099 608.017 165.082 606.667 166.249 605.7C167.415 604.717 168.84 604.225 170.524 604.225C171.057 604.225 171.565 604.283 172.049 604.4C172.549 604.517 172.99 604.7 173.374 604.95L173.049 608.275C172.949 608.692 172.699 608.9 172.299 608.9C172.065 608.9 171.724 608.85 171.274 608.75C170.824 608.65 170.315 608.6 169.749 608.6C168.949 608.6 168.232 608.717 167.599 608.95C166.982 609.183 166.424 609.533 165.924 610C165.44 610.45 164.999 611.017 164.599 611.7C164.215 612.367 163.865 613.133 163.549 614V630H159.074V604.675H161.624C162.107 604.675 162.44 604.767 162.624 604.95C162.807 605.133 162.932 605.45 162.999 605.9L163.299 609.75ZM192.81 610.7C191.977 609.583 191.077 608.808 190.11 608.375C189.143 607.925 188.06 607.7 186.86 607.7C184.51 607.7 182.702 608.542 181.435 610.225C180.168 611.908 179.535 614.308 179.535 617.425C179.535 619.075 179.677 620.492 179.96 621.675C180.243 622.842 180.66 623.808 181.21 624.575C181.76 625.325 182.435 625.875 183.235 626.225C184.035 626.575 184.943 626.75 185.96 626.75C187.427 626.75 188.702 626.417 189.785 625.75C190.885 625.083 191.893 624.142 192.81 622.925V610.7ZM197.26 593.175V630H194.61C193.977 630 193.577 629.692 193.41 629.075L193.01 626C191.927 627.3 190.693 628.35 189.31 629.15C187.927 629.95 186.327 630.35 184.51 630.35C183.06 630.35 181.743 630.075 180.56 629.525C179.377 628.958 178.368 628.133 177.535 627.05C176.702 625.967 176.06 624.617 175.61 623C175.16 621.383 174.935 619.525 174.935 617.425C174.935 615.558 175.185 613.825 175.685 612.225C176.185 610.608 176.902 609.208 177.835 608.025C178.768 606.842 179.91 605.917 181.26 605.25C182.627 604.567 184.16 604.225 185.86 604.225C187.41 604.225 188.735 604.492 189.835 605.025C190.952 605.542 191.943 606.267 192.81 607.2V593.175H197.26ZM221.239 614.575C221.239 613.542 221.089 612.6 220.789 611.75C220.505 610.883 220.08 610.142 219.514 609.525C218.964 608.892 218.289 608.408 217.489 608.075C216.689 607.725 215.78 607.55 214.764 607.55C212.63 607.55 210.939 608.175 209.689 609.425C208.455 610.658 207.689 612.375 207.389 614.575H221.239ZM224.839 626.45C224.289 627.117 223.63 627.7 222.864 628.2C222.097 628.683 221.272 629.083 220.389 629.4C219.522 629.717 218.622 629.95 217.689 630.1C216.755 630.267 215.83 630.35 214.914 630.35C213.164 630.35 211.547 630.058 210.064 629.475C208.597 628.875 207.322 628.008 206.239 626.875C205.172 625.725 204.339 624.308 203.739 622.625C203.139 620.942 202.839 619.008 202.839 616.825C202.839 615.058 203.105 613.408 203.639 611.875C204.189 610.342 204.972 609.017 205.989 607.9C207.005 606.767 208.247 605.883 209.714 605.25C211.18 604.6 212.83 604.275 214.664 604.275C216.18 604.275 217.58 604.533 218.864 605.05C220.164 605.55 221.28 606.283 222.214 607.25C223.164 608.2 223.905 609.383 224.439 610.8C224.972 612.2 225.239 613.8 225.239 615.6C225.239 616.3 225.164 616.767 225.014 617C224.864 617.233 224.58 617.35 224.164 617.35H207.239C207.289 618.95 207.505 620.342 207.889 621.525C208.289 622.708 208.839 623.7 209.539 624.5C210.239 625.283 211.072 625.875 212.039 626.275C213.005 626.658 214.089 626.85 215.289 626.85C216.405 626.85 217.364 626.725 218.164 626.475C218.98 626.208 219.68 625.925 220.264 625.625C220.847 625.325 221.33 625.05 221.714 624.8C222.114 624.533 222.455 624.4 222.739 624.4C223.105 624.4 223.389 624.542 223.589 624.825L224.839 626.45ZM257.223 618.6C255.173 618.667 253.423 618.833 251.973 619.1C250.539 619.35 249.364 619.683 248.448 620.1C247.548 620.517 246.889 621.008 246.473 621.575C246.073 622.142 245.873 622.775 245.873 623.475C245.873 624.142 245.981 624.717 246.198 625.2C246.414 625.683 246.706 626.083 247.073 626.4C247.456 626.7 247.898 626.925 248.398 627.075C248.914 627.208 249.464 627.275 250.048 627.275C250.831 627.275 251.548 627.2 252.198 627.05C252.848 626.883 253.456 626.65 254.023 626.35C254.606 626.05 255.156 625.692 255.673 625.275C256.206 624.858 256.723 624.383 257.223 623.85V618.6ZM242.848 608.25C244.248 606.9 245.756 605.892 247.373 605.225C248.989 604.558 250.781 604.225 252.748 604.225C254.164 604.225 255.423 604.458 256.523 604.925C257.623 605.392 258.548 606.042 259.298 606.875C260.048 607.708 260.614 608.717 260.998 609.9C261.381 611.083 261.573 612.383 261.573 613.8V630H259.598C259.164 630 258.831 629.933 258.598 629.8C258.364 629.65 258.181 629.367 258.048 628.95L257.548 626.55C256.881 627.167 256.231 627.717 255.598 628.2C254.964 628.667 254.298 629.067 253.598 629.4C252.898 629.717 252.148 629.958 251.348 630.125C250.564 630.308 249.689 630.4 248.723 630.4C247.739 630.4 246.814 630.267 245.948 630C245.081 629.717 244.323 629.3 243.673 628.75C243.039 628.2 242.531 627.508 242.148 626.675C241.781 625.825 241.598 624.825 241.598 623.675C241.598 622.675 241.873 621.717 242.423 620.8C242.973 619.867 243.864 619.042 245.098 618.325C246.331 617.608 247.939 617.025 249.923 616.575C251.906 616.108 254.339 615.842 257.223 615.775V613.8C257.223 611.833 256.798 610.35 255.948 609.35C255.098 608.333 253.856 607.825 252.223 607.825C251.123 607.825 250.198 607.967 249.448 608.25C248.714 608.517 248.073 608.825 247.523 609.175C246.989 609.508 246.523 609.817 246.123 610.1C245.739 610.367 245.356 610.5 244.973 610.5C244.673 610.5 244.414 610.425 244.198 610.275C243.981 610.108 243.798 609.908 243.648 609.675L242.848 608.25ZM272.951 593.175V630H268.501V593.175H272.951ZM288.993 617.625C289.893 617.625 290.684 617.5 291.368 617.25C292.051 617 292.626 616.65 293.093 616.2C293.559 615.75 293.909 615.217 294.143 614.6C294.376 613.967 294.493 613.275 294.493 612.525C294.493 610.975 294.018 609.742 293.068 608.825C292.134 607.908 290.776 607.45 288.993 607.45C287.193 607.45 285.818 607.908 284.868 608.825C283.934 609.742 283.468 610.975 283.468 612.525C283.468 613.275 283.584 613.967 283.818 614.6C284.068 615.217 284.426 615.75 284.893 616.2C285.359 616.65 285.934 617 286.618 617.25C287.301 617.5 288.093 617.625 288.993 617.625ZM297.018 631.375C297.018 630.758 296.843 630.258 296.493 629.875C296.143 629.492 295.668 629.192 295.068 628.975C294.484 628.758 293.801 628.608 293.018 628.525C292.234 628.425 291.401 628.35 290.518 628.3C289.651 628.25 288.768 628.2 287.868 628.15C286.968 628.1 286.101 628.017 285.268 627.9C284.334 628.333 283.568 628.883 282.968 629.55C282.384 630.2 282.093 630.967 282.093 631.85C282.093 632.417 282.234 632.942 282.518 633.425C282.818 633.925 283.268 634.35 283.868 634.7C284.468 635.067 285.218 635.35 286.118 635.55C287.034 635.767 288.109 635.875 289.343 635.875C290.543 635.875 291.618 635.767 292.568 635.55C293.518 635.333 294.318 635.025 294.968 634.625C295.634 634.225 296.143 633.75 296.493 633.2C296.843 632.65 297.018 632.042 297.018 631.375ZM301.543 605.675V607.325C301.543 607.875 301.193 608.225 300.493 608.375L297.618 608.75C298.184 609.85 298.468 611.067 298.468 612.4C298.468 613.633 298.226 614.758 297.743 615.775C297.276 616.775 296.626 617.633 295.793 618.35C294.959 619.067 293.959 619.617 292.793 620C291.626 620.383 290.359 620.575 288.993 620.575C287.809 620.575 286.693 620.433 285.643 620.15C285.109 620.483 284.701 620.842 284.418 621.225C284.134 621.592 283.993 621.967 283.993 622.35C283.993 622.95 284.234 623.408 284.718 623.725C285.218 624.025 285.868 624.242 286.668 624.375C287.468 624.508 288.376 624.592 289.393 624.625C290.426 624.658 291.476 624.717 292.543 624.8C293.626 624.867 294.676 624.992 295.693 625.175C296.726 625.358 297.643 625.658 298.443 626.075C299.243 626.492 299.884 627.067 300.368 627.8C300.868 628.533 301.118 629.483 301.118 630.65C301.118 631.733 300.843 632.783 300.293 633.8C299.759 634.817 298.984 635.717 297.968 636.5C296.951 637.3 295.701 637.933 294.218 638.4C292.751 638.883 291.093 639.125 289.243 639.125C287.393 639.125 285.776 638.942 284.393 638.575C283.009 638.208 281.859 637.717 280.943 637.1C280.026 636.483 279.334 635.767 278.868 634.95C278.418 634.15 278.193 633.308 278.193 632.425C278.193 631.175 278.584 630.117 279.368 629.25C280.151 628.383 281.226 627.692 282.593 627.175C281.843 626.842 281.243 626.4 280.793 625.85C280.359 625.283 280.143 624.525 280.143 623.575C280.143 623.208 280.209 622.833 280.343 622.45C280.476 622.05 280.676 621.658 280.943 621.275C281.226 620.875 281.568 620.5 281.968 620.15C282.368 619.8 282.834 619.492 283.368 619.225C282.118 618.525 281.143 617.6 280.443 616.45C279.743 615.283 279.393 613.933 279.393 612.4C279.393 611.167 279.626 610.05 280.093 609.05C280.576 608.033 281.243 607.175 282.093 606.475C282.943 605.758 283.951 605.208 285.118 604.825C286.301 604.442 287.593 604.25 288.993 604.25C290.093 604.25 291.118 604.375 292.068 604.625C293.018 604.858 293.884 605.208 294.668 605.675H301.543ZM326.969 604.675V630H324.319C323.686 630 323.286 629.692 323.119 629.075L322.769 626.35C321.669 627.567 320.436 628.55 319.069 629.3C317.702 630.033 316.136 630.4 314.369 630.4C312.986 630.4 311.761 630.175 310.694 629.725C309.644 629.258 308.761 628.608 308.044 627.775C307.327 626.942 306.786 625.933 306.419 624.75C306.069 623.567 305.894 622.258 305.894 620.825V604.675H310.344V620.825C310.344 622.742 310.777 624.225 311.644 625.275C312.527 626.325 313.869 626.85 315.669 626.85C316.986 626.85 318.211 626.542 319.344 625.925C320.494 625.292 321.552 624.425 322.519 623.325V604.675H326.969ZM338.225 608.35C338.775 607.733 339.358 607.175 339.975 606.675C340.592 606.175 341.242 605.75 341.925 605.4C342.625 605.033 343.358 604.758 344.125 604.575C344.908 604.375 345.75 604.275 346.65 604.275C348.033 604.275 349.25 604.508 350.3 604.975C351.367 605.425 352.25 606.075 352.95 606.925C353.667 607.758 354.208 608.767 354.575 609.95C354.942 611.133 355.125 612.442 355.125 613.875V630H350.65V613.875C350.65 611.958 350.208 610.475 349.325 609.425C348.458 608.358 347.133 607.825 345.35 607.825C344.033 607.825 342.8 608.142 341.65 608.775C340.517 609.408 339.467 610.267 338.5 611.35V630H334.025V604.675H336.7C337.333 604.675 337.725 604.983 337.875 605.6L338.225 608.35ZM376.656 608.85C376.456 609.217 376.148 609.4 375.731 609.4C375.481 609.4 375.198 609.308 374.881 609.125C374.564 608.942 374.173 608.742 373.706 608.525C373.256 608.292 372.714 608.083 372.081 607.9C371.448 607.7 370.698 607.6 369.831 607.6C369.081 607.6 368.406 607.7 367.806 607.9C367.206 608.083 366.689 608.342 366.256 608.675C365.839 609.008 365.514 609.4 365.281 609.85C365.064 610.283 364.956 610.758 364.956 611.275C364.956 611.925 365.139 612.467 365.506 612.9C365.889 613.333 366.389 613.708 367.006 614.025C367.623 614.342 368.323 614.625 369.106 614.875C369.889 615.108 370.689 615.367 371.506 615.65C372.339 615.917 373.148 616.217 373.931 616.55C374.714 616.883 375.414 617.3 376.031 617.8C376.648 618.3 377.139 618.917 377.506 619.65C377.889 620.367 378.081 621.233 378.081 622.25C378.081 623.417 377.873 624.5 377.456 625.5C377.039 626.483 376.423 627.342 375.606 628.075C374.789 628.792 373.789 629.358 372.606 629.775C371.423 630.192 370.056 630.4 368.506 630.4C366.739 630.4 365.139 630.117 363.706 629.55C362.273 628.967 361.056 628.225 360.056 627.325L361.106 625.625C361.239 625.408 361.398 625.242 361.581 625.125C361.764 625.008 361.998 624.95 362.281 624.95C362.581 624.95 362.898 625.067 363.231 625.3C363.564 625.533 363.964 625.792 364.431 626.075C364.914 626.358 365.498 626.617 366.181 626.85C366.864 627.083 367.714 627.2 368.731 627.2C369.598 627.2 370.356 627.092 371.006 626.875C371.656 626.642 372.198 626.333 372.631 625.95C373.064 625.567 373.381 625.125 373.581 624.625C373.798 624.125 373.906 623.592 373.906 623.025C373.906 622.325 373.714 621.75 373.331 621.3C372.964 620.833 372.473 620.442 371.856 620.125C371.239 619.792 370.531 619.508 369.731 619.275C368.948 619.025 368.139 618.767 367.306 618.5C366.489 618.233 365.681 617.933 364.881 617.6C364.098 617.25 363.398 616.817 362.781 616.3C362.164 615.783 361.664 615.15 361.281 614.4C360.914 613.633 360.731 612.708 360.731 611.625C360.731 610.658 360.931 609.733 361.331 608.85C361.731 607.95 362.314 607.167 363.081 606.5C363.848 605.817 364.789 605.275 365.906 604.875C367.023 604.475 368.298 604.275 369.731 604.275C371.398 604.275 372.889 604.542 374.206 605.075C375.539 605.592 376.689 606.308 377.656 607.225L376.656 608.85ZM401.03 604.675V630H396.58V604.675H401.03ZM401.98 596.725C401.98 597.158 401.888 597.567 401.705 597.95C401.538 598.317 401.305 598.65 401.005 598.95C400.721 599.233 400.38 599.458 399.98 599.625C399.596 599.792 399.188 599.875 398.755 599.875C398.321 599.875 397.913 599.792 397.53 599.625C397.163 599.458 396.838 599.233 396.555 598.95C396.271 598.65 396.046 598.317 395.88 597.95C395.713 597.567 395.63 597.158 395.63 596.725C395.63 596.292 395.713 595.883 395.88 595.5C396.046 595.1 396.271 594.758 396.555 594.475C396.838 594.175 397.163 593.942 397.53 593.775C397.913 593.608 398.321 593.525 398.755 593.525C399.188 593.525 399.596 593.608 399.98 593.775C400.38 593.942 400.721 594.175 401.005 594.475C401.305 594.758 401.538 595.1 401.705 595.5C401.888 595.883 401.98 596.292 401.98 596.725ZM412.541 608.35C413.091 607.733 413.675 607.175 414.291 606.675C414.908 606.175 415.558 605.75 416.241 605.4C416.941 605.033 417.675 604.758 418.441 604.575C419.225 604.375 420.066 604.275 420.966 604.275C422.35 604.275 423.566 604.508 424.616 604.975C425.683 605.425 426.566 606.075 427.266 606.925C427.983 607.758 428.525 608.767 428.891 609.95C429.258 611.133 429.441 612.442 429.441 613.875V630H424.966V613.875C424.966 611.958 424.525 610.475 423.641 609.425C422.775 608.358 421.45 607.825 419.666 607.825C418.35 607.825 417.116 608.142 415.966 608.775C414.833 609.408 413.783 610.267 412.816 611.35V630H408.341V604.675H411.016C411.65 604.675 412.041 604.983 412.191 605.6L412.541 608.35ZM450.972 608.85C450.772 609.217 450.464 609.4 450.047 609.4C449.797 609.4 449.514 609.308 449.197 609.125C448.881 608.942 448.489 608.742 448.022 608.525C447.572 608.292 447.031 608.083 446.397 607.9C445.764 607.7 445.014 607.6 444.147 607.6C443.397 607.6 442.722 607.7 442.122 607.9C441.522 608.083 441.006 608.342 440.572 608.675C440.156 609.008 439.831 609.4 439.597 609.85C439.381 610.283 439.272 610.758 439.272 611.275C439.272 611.925 439.456 612.467 439.822 612.9C440.206 613.333 440.706 613.708 441.322 614.025C441.939 614.342 442.639 614.625 443.422 614.875C444.206 615.108 445.006 615.367 445.822 615.65C446.656 615.917 447.464 616.217 448.247 616.55C449.031 616.883 449.731 617.3 450.347 617.8C450.964 618.3 451.456 618.917 451.822 619.65C452.206 620.367 452.397 621.233 452.397 622.25C452.397 623.417 452.189 624.5 451.772 625.5C451.356 626.483 450.739 627.342 449.922 628.075C449.106 628.792 448.106 629.358 446.922 629.775C445.739 630.192 444.372 630.4 442.822 630.4C441.056 630.4 439.456 630.117 438.022 629.55C436.589 628.967 435.372 628.225 434.372 627.325L435.422 625.625C435.556 625.408 435.714 625.242 435.897 625.125C436.081 625.008 436.314 624.95 436.597 624.95C436.897 624.95 437.214 625.067 437.547 625.3C437.881 625.533 438.281 625.792 438.747 626.075C439.231 626.358 439.814 626.617 440.497 626.85C441.181 627.083 442.031 627.2 443.047 627.2C443.914 627.2 444.672 627.092 445.322 626.875C445.972 626.642 446.514 626.333 446.947 625.95C447.381 625.567 447.697 625.125 447.897 624.625C448.114 624.125 448.222 623.592 448.222 623.025C448.222 622.325 448.031 621.75 447.647 621.3C447.281 620.833 446.789 620.442 446.172 620.125C445.556 619.792 444.847 619.508 444.047 619.275C443.264 619.025 442.456 618.767 441.622 618.5C440.806 618.233 439.997 617.933 439.197 617.6C438.414 617.25 437.714 616.817 437.097 616.3C436.481 615.783 435.981 615.15 435.597 614.4C435.231 613.633 435.047 612.708 435.047 611.625C435.047 610.658 435.247 609.733 435.647 608.85C436.047 607.95 436.631 607.167 437.397 606.5C438.164 605.817 439.106 605.275 440.222 604.875C441.339 604.475 442.614 604.275 444.047 604.275C445.714 604.275 447.206 604.542 448.522 605.075C449.856 605.592 451.006 606.308 451.972 607.225L450.972 608.85ZM465.628 630.4C463.628 630.4 462.086 629.842 461.003 628.725C459.936 627.608 459.403 626 459.403 623.9V608.4H456.353C456.086 608.4 455.861 608.325 455.678 608.175C455.495 608.008 455.403 607.758 455.403 607.425V605.65L459.553 605.125L460.578 597.3C460.628 597.05 460.736 596.85 460.903 596.7C461.086 596.533 461.32 596.45 461.603 596.45H463.853V605.175H471.178V608.4H463.853V623.6C463.853 624.667 464.111 625.458 464.628 625.975C465.145 626.492 465.811 626.75 466.628 626.75C467.095 626.75 467.495 626.692 467.828 626.575C468.178 626.442 468.478 626.3 468.728 626.15C468.978 626 469.186 625.867 469.353 625.75C469.536 625.617 469.695 625.55 469.828 625.55C470.061 625.55 470.27 625.692 470.453 625.975L471.753 628.1C470.986 628.817 470.061 629.383 468.978 629.8C467.895 630.2 466.778 630.4 465.628 630.4ZM489.498 618.6C487.448 618.667 485.698 618.833 484.248 619.1C482.815 619.35 481.64 619.683 480.723 620.1C479.823 620.517 479.165 621.008 478.748 621.575C478.348 622.142 478.148 622.775 478.148 623.475C478.148 624.142 478.256 624.717 478.473 625.2C478.69 625.683 478.981 626.083 479.348 626.4C479.731 626.7 480.173 626.925 480.673 627.075C481.19 627.208 481.74 627.275 482.323 627.275C483.106 627.275 483.823 627.2 484.473 627.05C485.123 626.883 485.731 626.65 486.298 626.35C486.881 626.05 487.431 625.692 487.948 625.275C488.481 624.858 488.998 624.383 489.498 623.85V618.6ZM475.123 608.25C476.523 606.9 478.031 605.892 479.648 605.225C481.265 604.558 483.056 604.225 485.023 604.225C486.44 604.225 487.698 604.458 488.798 604.925C489.898 605.392 490.823 606.042 491.573 606.875C492.323 607.708 492.89 608.717 493.273 609.9C493.656 611.083 493.848 612.383 493.848 613.8V630H491.873C491.44 630 491.106 629.933 490.873 629.8C490.64 629.65 490.456 629.367 490.323 628.95L489.823 626.55C489.156 627.167 488.506 627.717 487.873 628.2C487.24 628.667 486.573 629.067 485.873 629.4C485.173 629.717 484.423 629.958 483.623 630.125C482.84 630.308 481.965 630.4 480.998 630.4C480.015 630.4 479.09 630.267 478.223 630C477.356 629.717 476.598 629.3 475.948 628.75C475.315 628.2 474.806 627.508 474.423 626.675C474.056 625.825 473.873 624.825 473.873 623.675C473.873 622.675 474.148 621.717 474.698 620.8C475.248 619.867 476.14 619.042 477.373 618.325C478.606 617.608 480.215 617.025 482.198 616.575C484.181 616.108 486.615 615.842 489.498 615.775V613.8C489.498 611.833 489.073 610.35 488.223 609.35C487.373 608.333 486.131 607.825 484.498 607.825C483.398 607.825 482.473 607.967 481.723 608.25C480.99 608.517 480.348 608.825 479.798 609.175C479.265 609.508 478.798 609.817 478.398 610.1C478.015 610.367 477.631 610.5 477.248 610.5C476.948 610.5 476.69 610.425 476.473 610.275C476.256 610.108 476.073 609.908 475.923 609.675L475.123 608.25ZM504.827 608.35C505.377 607.733 505.96 607.175 506.577 606.675C507.193 606.175 507.843 605.75 508.527 605.4C509.227 605.033 509.96 604.758 510.727 604.575C511.51 604.375 512.352 604.275 513.252 604.275C514.635 604.275 515.852 604.508 516.902 604.975C517.968 605.425 518.852 606.075 519.552 606.925C520.268 607.758 520.81 608.767 521.177 609.95C521.543 611.133 521.727 612.442 521.727 613.875V630H517.252V613.875C517.252 611.958 516.81 610.475 515.927 609.425C515.06 608.358 513.735 607.825 511.952 607.825C510.635 607.825 509.402 608.142 508.252 608.775C507.118 609.408 506.068 610.267 505.102 611.35V630H500.627V604.675H503.302C503.935 604.675 504.327 604.983 504.477 605.6L504.827 608.35ZM535.941 630.4C533.941 630.4 532.399 629.842 531.316 628.725C530.249 627.608 529.716 626 529.716 623.9V608.4H526.666C526.399 608.4 526.174 608.325 525.991 608.175C525.807 608.008 525.716 607.758 525.716 607.425V605.65L529.866 605.125L530.891 597.3C530.941 597.05 531.049 596.85 531.216 596.7C531.399 596.533 531.632 596.45 531.916 596.45H534.166V605.175H541.491V608.4H534.166V623.6C534.166 624.667 534.424 625.458 534.941 625.975C535.457 626.492 536.124 626.75 536.941 626.75C537.407 626.75 537.807 626.692 538.141 626.575C538.491 626.442 538.791 626.3 539.041 626.15C539.291 626 539.499 625.867 539.666 625.75C539.849 625.617 540.007 625.55 540.141 625.55C540.374 625.55 540.582 625.692 540.766 625.975L542.066 628.1C541.299 628.817 540.374 629.383 539.291 629.8C538.207 630.2 537.091 630.4 535.941 630.4ZM562.889 614.575C562.889 613.542 562.739 612.6 562.439 611.75C562.156 610.883 561.731 610.142 561.164 609.525C560.614 608.892 559.939 608.408 559.139 608.075C558.339 607.725 557.431 607.55 556.414 607.55C554.281 607.55 552.589 608.175 551.339 609.425C550.106 610.658 549.339 612.375 549.039 614.575H562.889ZM566.489 626.45C565.939 627.117 565.281 627.7 564.514 628.2C563.747 628.683 562.922 629.083 562.039 629.4C561.172 629.717 560.272 629.95 559.339 630.1C558.406 630.267 557.481 630.35 556.564 630.35C554.814 630.35 553.197 630.058 551.714 629.475C550.247 628.875 548.972 628.008 547.889 626.875C546.822 625.725 545.989 624.308 545.389 622.625C544.789 620.942 544.489 619.008 544.489 616.825C544.489 615.058 544.756 613.408 545.289 611.875C545.839 610.342 546.622 609.017 547.639 607.9C548.656 606.767 549.897 605.883 551.364 605.25C552.831 604.6 554.481 604.275 556.314 604.275C557.831 604.275 559.231 604.533 560.514 605.05C561.814 605.55 562.931 606.283 563.864 607.25C564.814 608.2 565.556 609.383 566.089 610.8C566.622 612.2 566.889 613.8 566.889 615.6C566.889 616.3 566.814 616.767 566.664 617C566.514 617.233 566.231 617.35 565.814 617.35H548.889C548.939 618.95 549.156 620.342 549.539 621.525C549.939 622.708 550.489 623.7 551.189 624.5C551.889 625.283 552.722 625.875 553.689 626.275C554.656 626.658 555.739 626.85 556.939 626.85C558.056 626.85 559.014 626.725 559.814 626.475C560.631 626.208 561.331 625.925 561.914 625.625C562.497 625.325 562.981 625.05 563.364 624.8C563.764 624.533 564.106 624.4 564.389 624.4C564.756 624.4 565.039 624.542 565.239 624.825L566.489 626.45ZM587.105 608.85C586.905 609.217 586.597 609.4 586.18 609.4C585.93 609.4 585.647 609.308 585.33 609.125C585.013 608.942 584.622 608.742 584.155 608.525C583.705 608.292 583.163 608.083 582.53 607.9C581.897 607.7 581.147 607.6 580.28 607.6C579.53 607.6 578.855 607.7 578.255 607.9C577.655 608.083 577.138 608.342 576.705 608.675C576.288 609.008 575.963 609.4 575.73 609.85C575.513 610.283 575.405 610.758 575.405 611.275C575.405 611.925 575.588 612.467 575.955 612.9C576.338 613.333 576.838 613.708 577.455 614.025C578.072 614.342 578.772 614.625 579.555 614.875C580.338 615.108 581.138 615.367 581.955 615.65C582.788 615.917 583.597 616.217 584.38 616.55C585.163 616.883 585.863 617.3 586.48 617.8C587.097 618.3 587.588 618.917 587.955 619.65C588.338 620.367 588.53 621.233 588.53 622.25C588.53 623.417 588.322 624.5 587.905 625.5C587.488 626.483 586.872 627.342 586.055 628.075C585.238 628.792 584.238 629.358 583.055 629.775C581.872 630.192 580.505 630.4 578.955 630.4C577.188 630.4 575.588 630.117 574.155 629.55C572.722 628.967 571.505 628.225 570.505 627.325L571.555 625.625C571.688 625.408 571.847 625.242 572.03 625.125C572.213 625.008 572.447 624.95 572.73 624.95C573.03 624.95 573.347 625.067 573.68 625.3C574.013 625.533 574.413 625.792 574.88 626.075C575.363 626.358 575.947 626.617 576.63 626.85C577.313 627.083 578.163 627.2 579.18 627.2C580.047 627.2 580.805 627.092 581.455 626.875C582.105 626.642 582.647 626.333 583.08 625.95C583.513 625.567 583.83 625.125 584.03 624.625C584.247 624.125 584.355 623.592 584.355 623.025C584.355 622.325 584.163 621.75 583.78 621.3C583.413 620.833 582.922 620.442 582.305 620.125C581.688 619.792 580.98 619.508 580.18 619.275C579.397 619.025 578.588 618.767 577.755 618.5C576.938 618.233 576.13 617.933 575.33 617.6C574.547 617.25 573.847 616.817 573.23 616.3C572.613 615.783 572.113 615.15 571.73 614.4C571.363 613.633 571.18 612.708 571.18 611.625C571.18 610.658 571.38 609.733 571.78 608.85C572.18 607.95 572.763 607.167 573.53 606.5C574.297 605.817 575.238 605.275 576.355 604.875C577.472 604.475 578.747 604.275 580.18 604.275C581.847 604.275 583.338 604.542 584.655 605.075C585.988 605.592 587.138 606.308 588.105 607.225L587.105 608.85ZM593.236 627.25C593.236 626.817 593.311 626.408 593.461 626.025C593.628 625.642 593.844 625.308 594.111 625.025C594.394 624.742 594.728 624.517 595.111 624.35C595.494 624.183 595.903 624.1 596.336 624.1C596.769 624.1 597.178 624.183 597.561 624.35C597.944 624.517 598.278 624.742 598.561 625.025C598.844 625.308 599.069 625.642 599.236 626.025C599.403 626.408 599.486 626.817 599.486 627.25C599.486 627.7 599.403 628.117 599.236 628.5C599.069 628.867 598.844 629.192 598.561 629.475C598.278 629.758 597.944 629.975 597.561 630.125C597.178 630.292 596.769 630.375 596.336 630.375C595.903 630.375 595.494 630.292 595.111 630.125C594.728 629.975 594.394 629.758 594.111 629.475C593.844 629.192 593.628 628.867 593.461 628.5C593.311 628.117 593.236 627.7 593.236 627.25ZM605.052 627.25C605.052 626.817 605.127 626.408 605.277 626.025C605.444 625.642 605.661 625.308 605.927 625.025C606.211 624.742 606.544 624.517 606.927 624.35C607.311 624.183 607.719 624.1 608.152 624.1C608.586 624.1 608.994 624.183 609.377 624.35C609.761 624.517 610.094 624.742 610.377 625.025C610.661 625.308 610.886 625.642 611.052 626.025C611.219 626.408 611.302 626.817 611.302 627.25C611.302 627.7 611.219 628.117 611.052 628.5C610.886 628.867 610.661 629.192 610.377 629.475C610.094 629.758 609.761 629.975 609.377 630.125C608.994 630.292 608.586 630.375 608.152 630.375C607.719 630.375 607.311 630.292 606.927 630.125C606.544 629.975 606.211 629.758 605.927 629.475C605.661 629.192 605.444 628.867 605.277 628.5C605.127 628.117 605.052 627.7 605.052 627.25ZM616.869 627.25C616.869 626.817 616.944 626.408 617.094 626.025C617.26 625.642 617.477 625.308 617.744 625.025C618.027 624.742 618.36 624.517 618.744 624.35C619.127 624.183 619.535 624.1 619.969 624.1C620.402 624.1 620.81 624.183 621.194 624.35C621.577 624.517 621.91 624.742 622.194 625.025C622.477 625.308 622.702 625.642 622.869 626.025C623.035 626.408 623.119 626.817 623.119 627.25C623.119 627.7 623.035 628.117 622.869 628.5C622.702 628.867 622.477 629.192 622.194 629.475C621.91 629.758 621.577 629.975 621.194 630.125C620.81 630.292 620.402 630.375 619.969 630.375C619.535 630.375 619.127 630.292 618.744 630.125C618.36 629.975 618.027 629.758 617.744 629.475C617.477 629.192 617.26 628.867 617.094 628.5C616.944 628.117 616.869 627.7 616.869 627.25Z" fill="#2E2D2E"/>
<defs>
<clipPath id="clip0_4_36">
<rect width="667.456" height="581.065" fill="white"/>
</clipPath>
</defs>
</svg>
